<svg xmlns="http://www.w3.org/2000/svg" width="1553.745" height="1298.195" viewBox="0 0 1553.745 1298.195"><g transform="translate(8551 11853.526)"><path d="M1319.008,583.513c0,322.267-295.27,583.513-659.5,583.513S0,905.78,0,583.513,295.27,0,659.5,0s659.5,261.246,659.5,583.513" transform="translate(-8433.009 -11853.526)" fill="snow"/><g transform="translate(-8720 -11853)"><g transform="translate(472)"><g transform="translate(869.2 505)"><path d="M380.746,190.372c0,105.14-85.233,190.372-190.373,190.372S0,295.512,0,190.372,85.233,0,190.373,0,380.746,85.232,380.746,190.372" transform="translate(0.799 0.8)" fill="#ecf6ff"/><path d="M.4,0V389.383" transform="translate(190.772 136.153)" fill="none" stroke="#b6d4ff" stroke-miterlimit="10" stroke-width="6.4"/><path d="M0,42.378,42.379,0" transform="translate(191.172 274.318)" fill="none" stroke="#b6d4ff" stroke-miterlimit="10" stroke-width="6.4"/><path d="M0,21.821,21.821,0" transform="translate(192.772 167.669)" fill="none" stroke="#b6d4ff" stroke-miterlimit="10" stroke-width="6.4"/><path d="M40.615,40.614,0,0" transform="translate(150.557 212.857)" fill="none" stroke="#b6d4ff" stroke-miterlimit="10" stroke-width="6.4"/></g><g transform="translate(151 386.8)"><path d="M275.376,415.344c0,91.632-59.8,142.752-137.687,142.752S0,506.976,0,415.344C0,222.416,87.881,0,137.689,0S275.376,222.416,275.376,415.344" transform="translate(0 0.8)" fill="#cce3ff"/><path d="M.4,0V422.936" transform="translate(137.288 279.848)" fill="none" stroke="#ecf6ff" stroke-linecap="square" stroke-miterlimit="10" stroke-width="6.4"/><path d="M0,48.732,48.732,0" transform="translate(139.334 455.164)" fill="none" stroke="#ecf6ff" stroke-linecap="square" stroke-miterlimit="10" stroke-width="6.4"/><path d="M39.877,39.877,0,0" transform="translate(93.732 371.169)" fill="none" stroke="#ecf6ff" stroke-linecap="square" stroke-miterlimit="10" stroke-width="6.4"/><path d="M0,30.442,30.442,0" transform="translate(140.088 318.136)" fill="none" stroke="#ecf6ff" stroke-linecap="square" stroke-miterlimit="10" stroke-width="6.4"/></g><g transform="translate(206 816)"><path d="M0,0,42.437,197.679H70.51L28.073,0Z" transform="translate(708.022 201.246)" fill="#cce3ff"/><path d="M0,30.579H726.637V0H0Z" transform="translate(25.785 170.666)" fill="#d7ebff"/><path d="M0,30.58H141.671V0H0Z" transform="translate(598.347 281.407)" fill="#d7ebff"/><path d="M31.846,0,0,170.666H38.431L70.277,0Z" transform="translate(144.075)" fill="#cce3ff"/><path d="M31.846,0,0,170.666H38.43L70.276,0Z" transform="translate(697.978)" fill="#cce3ff"/><path d="M0,30.579H170.4V0H0Z" transform="translate(582.025 170.667)" fill="#b6d4ff"/><path d="M44.134,0l-5.7,30.586H0L5.708,0Z" transform="translate(762.447 111.25)" fill="#cce3ff"/><path d="M652.445,0l-5.708,30.586H0L5.708,0Z" transform="translate(115.711 111.25)" fill="#d7ebff"/><path d="M44.134,0l-5.7,30.575H0L5.708,0Z" transform="translate(772.823 55.627)" fill="#cce3ff"/><path d="M652.445,0l-5.708,30.575H0L5.708,0Z" transform="translate(126.087 55.627)" fill="#d7ebff"/><path d="M5.7,0,0,30.576H38.425L44.122,0Z" transform="translate(783.211 0.004)" fill="#cce3ff"/><path d="M5.708,0,0,30.576H646.738L652.435,0Z" transform="translate(136.472 0.004)" fill="#d7ebff"/><path d="M42.437,0,0,197.679H28.074L70.51,0Z" transform="translate(555.91 201.246)" fill="#cce3ff"/><path d="M0,0,42.437,197.679H70.509L28.073,0Z" transform="translate(152.112 201.245)" fill="#cce3ff"/><path d="M0,30.579H141.672V0H0Z" transform="translate(42.436 281.407)" fill="#d7ebff"/><path d="M42.436,0,0,197.679H28.074L70.509,0Z" transform="translate(0 201.245)" fill="#cce3ff"/></g><g transform="translate(0.2 606.2)"><path d="M228.83,198.264c0,84.745-35.053,161.713-114.415,161.713S0,283.009,0,198.264C0,98.854,59.972,0,114.415,0S228.83,98.854,228.83,198.264" transform="translate(0 0.8)" fill="#ecf6ff"/><path d="M.4,0V241.34" transform="translate(114.015 180.788)" fill="none" stroke="#dceeff" stroke-linecap="square" stroke-miterlimit="10" stroke-width="6.4"/><path d="M0,34.771,30.967,0" transform="translate(116.815 256.326)" fill="none" stroke="#dceeff" stroke-linecap="square" stroke-miterlimit="10" stroke-width="6.4"/><path d="M30.968,34.772,0,0" transform="translate(78.883 209.119)" fill="none" stroke="#dceeff" stroke-linecap="square" stroke-miterlimit="10" stroke-width="6.4"/></g><g transform="translate(1122 142)"><path d="M17.845,0H8.308A8.308,8.308,0,0,0,0,8.308v687.8H26.153V8.308A8.308,8.308,0,0,0,17.845,0" transform="translate(44.939 36.965)" fill="#d7ebff"/><path d="M0,70.935H41.841V0H0Z" transform="translate(37.096 725.406)" fill="#cce3ff"/><path d="M0,207.313H64.553V0H0Z" transform="translate(25.739 757.678)" fill="#d7ebff"/><path d="M73.506,0H19.693A19.692,19.692,0,0,0,0,19.692v8.652H93.2V19.692A19.691,19.691,0,0,0,73.506,0" transform="translate(11.417 937.527)" fill="#cce3ff"/><path d="M74.229,0H9.687A9.686,9.686,0,0,0,0,9.686v1.193a9.686,9.686,0,0,0,9.687,9.686H74.229a9.685,9.685,0,0,0,9.686-9.686V9.686A9.685,9.685,0,0,0,74.229,0" transform="translate(16.058 755.728)" fill="#cce3ff"/><path d="M17.41,0h0A17.41,17.41,0,0,0,0,17.41v2.146a17.41,17.41,0,0,0,34.82,0V17.41A17.41,17.41,0,0,0,17.41,0" transform="translate(40.606 0)" fill="#cce3ff"/><path d="M61.164,0H9.686A9.686,9.686,0,0,0,0,9.686v1.193a9.686,9.686,0,0,0,9.686,9.686H61.164a9.686,9.686,0,0,0,9.686-9.686V9.686A9.686,9.686,0,0,0,61.164,0" transform="translate(22.591 203.029)" fill="#cce3ff"/><path d="M43.781,0H6.359A6.359,6.359,0,0,0,0,6.359v.784A6.359,6.359,0,0,0,6.359,13.5H43.781A6.358,6.358,0,0,0,50.14,7.143V6.359A6.358,6.358,0,0,0,43.781,0" transform="translate(32.946 223.594)" fill="#cce3ff"/><path d="M98.861,0,70.588,136.265h-42.3L0,0Z" transform="translate(8.585 66.763)" fill="#ecf6ff"/><path d="M116.032,24.39,103.635,0H12.4L0,24.39Z" transform="translate(0 49.596)" fill="#cce3ff"/></g></g></g><g transform="translate(-8551 -11426)"><g transform="translate(174)"><g transform="translate(0 69)"><path d="M70.555,115.009,69.7,85.647s35.906,2.841,43.588-1.124c0,0,8.28-43.248-2.036-75.715L35.479,0,30.088,43.3C27.535,35.815,7.613,27.243,2.106,37.956-9.826,61.169,32.841,76.8,32.841,76.8l-4.333,38.563" transform="translate(0 0.836)" fill="#7d4200"/></g><path d="M24.212,5.159,0,0,24.1,16.175Z" transform="translate(45.487 150.324)" opacity="0.399"/><path d="M1.661,0l8.367,20.326L0,20.453Z" transform="translate(88.011 107.5)"/><path d="M10.057,4.141A5.067,5.067,0,0,1,.082,5.934a5.067,5.067,0,0,1,9.975-1.793" transform="translate(70.075 109.136)"/><path d="M10.057,4.141A5.067,5.067,0,0,1,.082,5.934a5.067,5.067,0,0,1,9.975-1.793" transform="translate(96.39 109.136)"/><g transform="translate(79.2 133.332)"><path d="M0,0A11.854,11.854,0,0,0,10.446,5.169" transform="translate(0.068 0.376)" fill="#fff"/><path d="M0,0A11.854,11.854,0,0,0,10.446,5.169" transform="translate(0.068 0.376)" fill="none" stroke="#000" stroke-miterlimit="10" stroke-width="4"/></g><path d="M14.224,102.985C10.859,90.552-1.318,44.657.117,36.822,1.777,27.742,8.139,16.6,40.824,4.9,68.517-5,84.138,2.172,88.87,8.275c7.2,9.287,20.838,69.475,20.838,69.475s-11.284,7.979-51.3,6.6c0,0,5.539,23.938-17.168,22.562,0,0,2.433,8.061-8.556,10.6a35.1,35.1,0,0,0-18.46-14.528Z" transform="translate(1.543 0.894)" fill="#19141e"/></g><g transform="translate(0 353.242)"><g transform="translate(0 359.56)"><path d="M326.713,157.868h0L302.216,96.3l29.435-1.555,6.952,22.417.018-.009c1.024-.415,10.362-4.164,22.761-7.864,7.658-2.285,14.972-4.106,21.739-5.412a121.64,121.64,0,0,1,22.652-2.46,52.481,52.481,0,0,1,15.043,1.915l-94.1,54.532ZM52.774,140.532,0,48.387,65.148,0,75.723,28.243,45.282,56.165l0,0a329.932,329.932,0,0,1,6.427,36.1,295.641,295.641,0,0,1,1.567,33.644c-.077,8.71-.485,14.38-.5,14.617Z" transform="translate(0 0)" fill="#0c283d"/></g><g transform="translate(27 359.533)"><path d="M287.311,127.241h0l-10.743-26.056,29.1-2.622,5.728,18.628-24.085,10.05ZM18.075,56.192h0L0,28.384,37.5,0l3.347,35.385L18.076,56.192Z" transform="translate(0.206 0)" fill="#0c283d"/></g><g transform="translate(27 0.956)"><path d="M250.16,100.369,331.34,463.41l-22.36,5.706h-.01l-26.03,6.652-.13.03-9.01,2.3s-41.36-130.5-77.771-246.92a401.215,401.215,0,0,1-30.071,42.56C86.17,372.284,37.35,414.406,37.35,414.406l-7.26-10.944-.02-.03-17.45-26.3L0,358.113S109.26,254.967,158.42,109.868C149.779,81.618,143.789,61.451,142.25,55c-8.81-36.8-8.99-53.654-8.99-55H265.6a544.16,544.16,0,0,1-15.44,100.368Z" transform="translate(0.572 0)" fill="#0c283d"/></g><g transform="translate(160.832 0.956)"><path d="M198.08,463.41l-22.36,5.706h-.01l-26.03,6.652-.13.03-9.01,2.3S99.18,347.6,62.769,231.177c-14.21-45.449-27.66-88.747-37.609-121.31C16.519,81.618,10.529,61.451,8.99,55,.18,18.2,0,1.344,0,0H94.46L116.9,100.368Z" transform="translate(0 0)" fill="#0c283d"/></g></g><g transform="translate(100 158.5)"><g transform="translate(0 19.889)"><path d="M24.93,289.877c-1.362,0-3.95-7.983-4.014-8.18a.126.126,0,0,1,0,.015,9.885,9.885,0,0,1-.532,2.2A3.683,3.683,0,0,1,17.9,286.48H17.9c-.767,0-9.321-24.193-9.407-24.437l.522,5.55,1.152,5.684a5.4,5.4,0,0,1-.352,1.6,3.08,3.08,0,0,1-2.184,2,.28.28,0,0,1-.06.007c-.461,0-1.13-1.091-1.987-3.243-.738-1.854-1.613-4.5-2.53-7.655A55.4,55.4,0,0,1,1.19,242.643c.193-1.692.333-3.187.457-4.506a56.464,56.464,0,0,1,3.811-17.109c.421-1.168,1-2.553,1.715-4.118-1.023-8.883-2.98-26.358-4.59-43.59C.6,152.155-.244,137.944.059,131.083c.2-4.422,1.436-10.454,3.686-17.931,1.8-5.981,4.247-12.894,7.273-20.547,5.151-13.027,10.265-23.832,10.316-23.939L62.788,91.976,39.939,133.852l-1.254,80.109,2.465,4.707a67.3,67.3,0,0,1,4.567,10.559,46.165,46.165,0,0,1,1.706,6.833,52.049,52.049,0,0,0,4.711,14.528c1.6,3.332,2.083,5.66,1.408,6.733a1.536,1.536,0,0,1-1.4.671,8.42,8.42,0,0,1-4.2-1.732,16.435,16.435,0,0,1-4-3.862,20.336,20.336,0,0,1-2.467-5.579c-.846-2.6-1.645-5.05-3.8-6.48-.108.173-.229.354-.357.546-1.356,2.032-3.879,5.812-5.331,21.587-.282,3.059,1.1,13.042,1.111,13.143,0,.223.006.463.011.718.056,3.232.151,8.64-3,9.527a1.078,1.078,0,0,1-.293.039,3.174,3.174,0,0,1-1.649-.739.036.036,0,0,1,0,.009,5.954,5.954,0,0,1-.273,2.052A3.79,3.79,0,0,1,25,289.868.337.337,0,0,1,24.93,289.877Zm189.1-140.592a16.188,16.188,0,0,1-6.215-1.225c-4.717-1.949-10.041-7.336-15.823-16.011a208.978,208.978,0,0,1-14.649-26.891c-8.679-18.578-14.9-36.316-14.963-36.493l40.241-24.089,18.082,48.687,36.922-40.347c-1.265-8.068-2.25-18.457.241-22.13,4.2-6.194,25.568-25.4,25.783-25.592l3.92,32.737.685-2.759a1.258,1.258,0,0,1,.113-.5l.016-.035.008-.017,1.585-6.387c-.7-.357-.921-.857-.65-1.486a5.453,5.453,0,0,1,1.453-1.756l5.412-21.811s.085.037.231.1c.576.26,2.108.949,4.147,1.882a2.761,2.761,0,0,1,.556-.052c4.764,0,18.444,9.313,19.024,9.709.333.217.556.8.661,1.732.4,3.5-.867,11.725-3.141,20.471-2.478,9.529-5.371,16.676-7.738,19.12-4.225,4.363-17.3,8.123-24.719,9.976-5.365,10.6-16.31,31.071-29.334,49.159-7.335,10.186-14.336,18.211-20.81,23.852a52.081,52.081,0,0,1-10.672,7.409A23.4,23.4,0,0,1,214.034,149.285ZM141.26,21.234c-1.08,0-2.225-.035-3.4-.1a51.856,51.856,0,0,1-15.5-3.23A43.637,43.637,0,0,1,111.5,11.875,38.907,38.907,0,0,1,101.408.64c6.12-.425,9.888-.64,13.5-.64,5.849,0,11.417.58,23.617,1.851a100.552,100.552,0,0,1,17.957,3.705l.014,0q.815.227,1.622.45c.655,2.236,1.366,6.5-1.233,9.974S149.019,21.234,141.26,21.234Z" transform="translate(0)" fill="#7d4200"/></g><g transform="translate(17 20)"><path d="M44.28,177.526,42.05,96.1,0,64.466s19.83-40,53.76-55.921A91.78,91.78,0,0,1,84.15.036c.768-.077.162-.055.256.309a3.969,3.969,0,0,0,.453.864c.215.35.215.237,1.268,1.8A45.453,45.453,0,0,0,91.1,8.545,33.507,33.507,0,0,0,98.394,14a72.076,72.076,0,0,0,7.87,3.629,27.281,27.281,0,0,0,4.553,1.438c3.943.942,7.013,1.234,13.274,1.562.76.04,5.161-.288,5.935-.443,1.1-.22,2.093-.42,3.341-.762a14.245,14.245,0,0,0,6.4-4.363c.871-1.088,1.7-4.666,1.444-7.3s-1.4-2.641-.354-2.354c18.371,5.03,35.731,15.4,45.88,33.79q1.228,2.223,2.247,4.282l.144-.028,16.354,37.819L182.143,94.954l-4.873,82.572Z" transform="translate(0.258 0.493)"/></g><path d="M0,22.687l10.667,7.261L36.308,0" transform="translate(59.306 93.898)" fill="none" stroke="#000" stroke-miterlimit="10" stroke-width="5" opacity="0.201"/><path d="M31.947,63.647,30.089,72.79H0L14.193,0H44.282L38.771,28.263l-5.917-2.751L31.012,25l-1.451.082-.629.431v1.769l6.432,9.279-4.92,2.15-7.57,3.984-2.187,1.519L19.839,45l-.692.622-.441.534-.265.478-.114.62.114.274.132.211.191.191,2.481.879,5.66-1.555H32.5l-7.467,1.555-4.92,2.953-1.672,1.581L17.5,54.5v1.063l1.651.745,10.414-1.2-3.448,1.882-2.285,1.421L21.733,59.5l-1.62,2.1v1.035l.574.608,1.454.776h6.686Z" transform="translate(270.887 0)" fill="#183152"/><path d="M4.979,72.79H0L14.193,0h4.978Z" transform="translate(265.904 0)" fill="#020101"/><path d="M4.139,4.262C3.723,6.388,2.49,7.937,1.385,7.72S-.278,5.605.138,3.479,1.787-.2,2.892.02,4.555,2.136,4.139,4.262" transform="translate(286.119 4.189)" fill="#020101"/></g></g><g transform="translate(-7786 -11245.999)"><g transform="translate(266.906 0)"><path d="M117.742,30.4c37.707,5.26,21.909,48.689,11.311,72.137-12.44,27.524-1.543,45.978-1.543,45.978L185.8,127.824c-21.392-27.2,2.233-42.356-3.583-74.793-5.217-29.1-33.535-42.225-51.427-41.606a51.974,51.974,0,0,0-22.026,5.558q-.33.168-.63.359C97.56,6.487,82.929,0,66.019,0,31.244,0,0,27.437,0,63.868s28.19,65.964,62.966,65.964,62.966-29.533,62.966-65.964a69.493,69.493,0,0,0-8.19-33.465Z" transform="translate(0)" fill="#19141e"/><path d="M0,2.628S12.931,3.01,18.442,0L.687,11.147Z" transform="translate(56.814 128.946)" fill="#cf3e83"/><g transform="translate(8.609 48.061)"><path d="M0,34.777c1.939,15,6.969,36.144,19.388,44.4,6.59,4.38,18.59,4.92,28.82,4.33l2.34,29.05,33.38-13.74s-3.21-32.06-4.6-44.35c6.71-6.08,18.141-8.9,18.161-19.23,0-3.58-2.09-9.77-9.81-9.79-10.36-.01-8.88,12.41-8.88,12.41a5.357,5.357,0,0,1-3.854.012C64.686,37.445,36.153,33.149,16.753,0,14.489,11.158,9.783,25.067,0,34.777Z" transform="translate(0 0)" fill="#7d4200"/></g><path d="M7.4,0,0,17.94l8.585-.172Z" transform="translate(21.305 85.893)"/><path d="M.013,6.746C.2,10.33,2.305,13.122,4.721,12.983s4.225-3.157,4.04-6.741S6.469-.134,4.053,0-.172,3.163.013,6.746" transform="translate(36.571 79.925)"/><path d="M.013,6.747C.2,10.331,2.3,13.123,4.721,12.984S8.946,9.827,8.762,6.243,6.47-.134,4.054,0-.171,3.163.013,6.747" transform="translate(13.884 79.352)"/><path d="M0,4.427S5.594,6.233,11.2,0" transform="translate(31.996 107.827)" fill="none" stroke="#000" stroke-miterlimit="10" stroke-width="3"/><path d="M0,2.629S12.93,3.011,18.442,0L.687,11.147Z" transform="translate(56.836 128.945)" opacity="0.403"/></g><g transform="translate(215.909 126)"><path d="M0,.72l6.91-.1S6.9.51,6.891.28C4.511.449,2.21.589,0,.72" transform="translate(159.791 167.97)" fill="#c83820"/><g transform="translate(18.991 0)"><path d="M0,243.57l22.811,2.859,36.739-57.46,1.341-19.1,55.969-.83,23.89-.35h.05c2.21-.131,4.511-.27,6.89-.44,30.09-2.1,71.78-7.951,74.64-24.151,5.19-29.34-34.07-86.279-38.71-92.879-.29-.41-.439-.63-.439-.63-6.58-9.4-13.2-16.71-19.381-20.6-12.02-7.57-23.29-9.231-34-9.2L126.931,0,83.24,6.029,85.62,23.31c-12.83,1.23-21.559,3.739-29.729,11.239C29.66,58.63,27.73,148.82,27.73,148.82Z" fill="#ffa295"/></g><path d="M0,.475v.4s10.02.02,23.89-.75Z" transform="translate(135.851 168.564)" fill="#c83820"/><path d="M15.15,95.051C11.942,54.308-10.263,45.693,5.737,0" transform="translate(65.535 74.587)" fill="none" stroke="#000" stroke-miterlimit="10" stroke-width="3" opacity="0.201"/><path d="M37.942,134.989l83.438-9.617a4.462,4.462,0,0,0,3.783-5.648L92.2,3.246a4.462,4.462,0,0,0-4.8-3.217L3.953,9.646A4.461,4.461,0,0,0,.171,15.294L33.138,131.771a4.463,4.463,0,0,0,4.8,3.218" transform="translate(4.967 85.053)" fill="#18181c"/><path d="M117,90.889q-.238.064-.482.132a47.257,47.257,0,0,1-19.963,1.453c-5.3-.693-9.858-1.6-9.807-2.445.146-2.137,2.719-2.616,2.719-2.616l4.95.239,4.762-.282S77.3,83.232,77.3,82.591c.068-2.257,3.659-3.172,3.659-3.172s-7.523-1.2-7.437-2.394c.205-3.043,3.564-3.274,3.564-3.274s-.932-.8-.838-1.548c.368-3,5.72-3.5,8.268-3.864,0,0,8.669-.119,11.251-.761A67.025,67.025,0,0,0,109.137,63.1L92.2,3.246a4.463,4.463,0,0,0-4.8-3.217L3.953,9.647A4.46,4.46,0,0,0,.171,15.294L33.138,131.771a4.462,4.462,0,0,0,4.8,3.218l83.438-9.617a4.463,4.463,0,0,0,3.783-5.648L117,90.889Z" transform="translate(0 85.625)" fill="#fcbda4"/><g transform="translate(2.365 136.438)"><path d="M132.935,0h0A3.908,3.908,0,0,0,130.1,2.13c-1.17,2.591.817,6.442.837,6.481l-.016-.016c-.861-.715-5.256-4.282-7.247-4.282h-.055a34.133,34.133,0,0,0-12.036,2.23,12.054,12.054,0,0,0-5.462,4.2,7.248,7.248,0,0,0-1.179,5.8,1.826,1.826,0,0,0,1.908,1.182,11.322,11.322,0,0,0,4.569-1.6.115.115,0,0,0-.012.023A102.555,102.555,0,0,0,106.534,28.5a76.318,76.318,0,0,0-2.829,11.622,37.543,37.543,0,0,0-.178,11.817l21.833,2.737c5.215-6.137,11.627-13.837,12.56-15.67,1.578-3.1,4.6-18.776,4.457-21.97-.14-3.058-9.35-16.9-9.443-17.036ZM41.421,119.732a48.306,48.306,0,0,0-13.192,1.917c-.383.108-.756.206-1.117.3l-.293.077c-.858.225-1.639.421-2.394.611a48.236,48.236,0,0,0-13.91,5.426A71.8,71.8,0,0,0,0,135.458l5.531,20.467,7.626,2.606a58,58,0,0,0,9.516,2.489,43.646,43.646,0,0,0,6.541.554c1.542.053,3.136.108,4.748.283l-2.2-8.063a2.373,2.373,0,0,1-.45-.591,3.252,3.252,0,0,0-.3-.426c.121-.1.243-.212.372-.331l.142-.13c1.4-1.281,4.316-3.945,17.449-7.224,2.547-.633,11.164-.759,11.251-.76l.6-.084h.006c2.737-.374,7.319-1,7.66-3.78.091-.724-.8-1.515-.837-1.547h.009a5.1,5.1,0,0,0,1.7-.5,3.234,3.234,0,0,0,1.859-2.778c.084-1.182-7.362-2.382-7.438-2.394h.008c.367-.1,3.587-1.053,3.652-3.172,0-.631-21.659-4.738-21.878-4.779l4.762-.282,4.95.239c.026,0,2.575-.5,2.719-2.615.044-.733-3.53-1.625-9.806-2.445A51.367,51.367,0,0,0,41.421,119.732Z" transform="translate(142.383 161.858) rotate(180)" fill="#7d4200"/></g><path d="M23.5,0s-2.84,10.729-12.587,14.072C7.5,15.241,8.353,29.041,0,27.391" transform="translate(5.703 254.05)" fill="none" stroke="#000" stroke-miterlimit="10" stroke-width="3" opacity="0.148"/><path d="M.336,4.408c.657,2.064,2.059,3.461,3.132,3.12s1.41-2.292.753-4.356S2.162-.29,1.089.051-.321,2.343.336,4.408" transform="translate(83.382 92.098)" fill="#020101"/><path d="M31.3,0l21.06,34.872L0,55.591" transform="translate(136.46 82.666)" fill="none" stroke="#000" stroke-miterlimit="10" stroke-width="3" opacity="0.2"/></g><g transform="translate(0 242.998)"><g transform="translate(0 218.742)"><path d="M0,0,3.351,64.522,26.026,53.995,23.445,31.467l.014,0c1.267-.337,12.764-3.442,26.253-8.632a188.545,188.545,0,0,0,21.866-9.886C79.364,8.729,85.4,4.425,89.518.155ZM138,99.644h0L104.25,154.971l24.813,3.738,10.311-20.292.017.007c.91.306,9.208,3.064,20.239,5.783,6.819,1.681,13.341,3.02,19.383,3.98a131.328,131.328,0,0,0,20.275,1.809,59.3,59.3,0,0,0,12.743-1.219L138,99.644Z" transform="translate(212.031 158.708) rotate(180)" fill="#0d0b6d"/></g><g transform="translate(70.173 221.619)"><path d="M24.313,0h0L0,.893.731,28.155,24.516,18.7,24.313,0Zm95.159,96.651h0l-14.48,23.229,25.148,5.252,10.184-15.772-20.85-12.71Z" transform="translate(140.323 125.133) rotate(180)" fill="#7d4200"/></g><g transform="translate(65.541 0)"><path d="M84.494,200.1,96.8,333.724h57.019L151.292,139.71l108.835.75c31.048,0,61.078-26.664,58.925-57.653l-3.385-31.55L149.461,2.155C118.692-4.8,108.024,4.389,88.076,39.9L0,220.438l48.384,32.333Z" transform="translate(0 0)" fill="#b9b9b9"/></g><g transform="translate(142.187 62.746)"><path d="M58.929,0h0L183.482,77.715l-108.835-.75,2.531,194.014H20.158L.61,58.795C-4.213,20.188,19.949,0,58.929,0" transform="translate(0 0)" fill="#18181c" opacity="0.15"/></g></g></g></g></svg>