<svg xmlns="http://www.w3.org/2000/svg" xmlns:xlink="http://www.w3.org/1999/xlink" width="1294.054" height="1146.405" viewBox="0 0 1294.054 1146.405">
  <defs>
    <clipPath id="clip-path">
      <rect width="827.333" height="398.925" fill="none"/>
    </clipPath>
    <clipPath id="clip-path-2">
      <rect width="366.827" height="454.826" fill="none"/>
    </clipPath>
    <clipPath id="clip-path-3">
      <path id="Pants" d="M132.541,110.594,98.676,0H231.333a390.756,390.756,0,0,1-19.883,122.35l53.325,252.218a8.825,8.825,0,0,1-2.734,8.376l8.1,28.892-33.119,9.683-7.889-26.924-.206.068a8.811,8.811,0,0,1-11.2-5.785L165.047,216.806Q156.135,230,145.6,243.1c-44.553,55.193-72.321,84.959-86.6,99.278a13.933,13.933,0,0,1-18.408,1.187L20.221,360.4,0,332.471l20.126-16.643a13.871,13.871,0,0,1,1.428-16.557c20.52-22.993,78.27-93.213,110.987-188.676Z" transform="translate(0 0)" fill="#19141e"/>
    </clipPath>
    <clipPath id="clip-path-4">
      <rect width="320.886" height="309.765" fill="none"/>
    </clipPath>
  </defs>
  <g id="Group_1" data-name="Group 1" transform="translate(3684.942 9859.442)">
    <path id="Fill_1" data-name="Fill 1" d="M1294.054,573.2c0,316.572-289.684,573.2-647.027,573.2S0,889.775,0,573.2,289.684,0,647.027,0s647.027,256.63,647.027,573.2" transform="translate(-3684.942 -9859.442)" fill="#183152"/>
    <g id="Background_Object_Sofa_4" data-name="Background Object / Sofa / 4" transform="translate(-3300 -9201.5)" clip-path="url(#clip-path)">
      <g id="Group_17" data-name="Group 17" transform="translate(0)">
        <path id="Fill_1-2" data-name="Fill 1" d="M0,0,42.437,197.679H70.51L28.073,0Z" transform="translate(708.022 201.246)" fill="#c88484"/>
        <path id="Fill_2" data-name="Fill 2" d="M0,30.579H726.637V0H0Z" transform="translate(25.785 170.666)" fill="#c88484"/>
        <path id="Fill_3" data-name="Fill 3" d="M0,30.58H141.671V0H0Z" transform="translate(598.347 281.407)" fill="#c88484"/>
        <path id="Fill_4" data-name="Fill 4" d="M31.846,0,0,170.666H38.431L70.277,0Z" transform="translate(144.075)" fill="#c88484"/>
        <path id="Fill_5" data-name="Fill 5" d="M31.846,0,0,170.666H38.43L70.276,0Z" transform="translate(697.978)" fill="#c88484"/>
        <path id="Fill_6" data-name="Fill 6" d="M0,30.579H170.4V0H0Z" transform="translate(582.025 170.667)" fill="#c88484"/>
        <path id="Fill_7" data-name="Fill 7" d="M44.134,0l-5.7,30.586H0L5.708,0Z" transform="translate(762.447 111.25)" fill="#c88484"/>
        <path id="Fill_8" data-name="Fill 8" d="M652.445,0l-5.708,30.586H0L5.708,0Z" transform="translate(115.711 111.25)" fill="#c88484"/>
        <path id="Fill_9" data-name="Fill 9" d="M44.134,0l-5.7,30.575H0L5.708,0Z" transform="translate(772.823 55.627)" fill="#c88484"/>
        <path id="Fill_10" data-name="Fill 10" d="M652.445,0l-5.708,30.575H0L5.708,0Z" transform="translate(126.087 55.627)" fill="#c88484"/>
        <path id="Fill_11" data-name="Fill 11" d="M5.7,0,0,30.576H38.425L44.122,0Z" transform="translate(783.211 0.004)" fill="#c88484"/>
        <path id="Fill_12" data-name="Fill 12" d="M5.708,0,0,30.576H646.738L652.435,0Z" transform="translate(136.472 0.004)" fill="#c88484"/>
        <path id="Fill_13" data-name="Fill 13" d="M42.437,0,0,197.679H28.074L70.51,0Z" transform="translate(555.91 201.246)" fill="#c88484"/>
        <path id="Fill_14" data-name="Fill 14" d="M0,0,42.437,197.679H70.509L28.073,0Z" transform="translate(152.112 201.245)" fill="#c88484"/>
        <path id="Fill_15" data-name="Fill 15" d="M0,30.579H141.672V0H0Z" transform="translate(42.436 281.407)" fill="#c88484"/>
        <path id="Fill_16" data-name="Fill 16" d="M42.436,0,0,197.679H28.074L70.509,0Z" transform="translate(0 201.245)" fill="#c88484"/>
      </g>
    </g>
    <g id="Man_Head_5" data-name="Man / Head / 5" transform="translate(-3103 -9537.5)">
      <g id="Group_23" data-name="Group 23" transform="translate(0 0)">
        <g id="Face_color" data-name="Face color" transform="translate(0 24.984)">
          <path id="Face" d="M70.34,114.774l-.853-29.3s35.8,2.835,43.455-1.122c0,0,9.359-47.964-1.8-74.526l-.226-1.034L35.37,0,31.938,44.246C29.394,36.781,7.589,27.187,2.1,37.878-9.8,61.044,32.74,76.642,32.74,76.642l-4.319,38.484" transform="translate(0)" fill="#61180e"/>
        </g>
        <path id="Fill_4-2" data-name="Fill 4" d="M24.139,5.148,0,0,24.023,16.142Z" transform="translate(45.348 105.307)" opacity="0.403"/>
        <path id="Fill_6-2" data-name="Fill 6" d="M1.655,0,10,20.284,0,20.411Z" transform="translate(87.743 62.572)"/>
        <path id="Fill_8-2" data-name="Fill 8" d="M10.026,4.132A5.052,5.052,0,1,1,4.154.081a5.027,5.027,0,0,1,5.872,4.051" transform="translate(69.862 64.204)"/>
        <path id="Fill_10-2" data-name="Fill 10" d="M10.026,4.132A5.052,5.052,0,1,1,4.154.081a5.027,5.027,0,0,1,5.872,4.051" transform="translate(96.097 64.204)"/>
        <path id="Hair" d="M28.374,80.137q-.209-.51-.465-1.056C22.141,66.806,13.2,61.648,7.32,59.508A38.424,38.424,0,0,1,.737,43.935c-2.665-17.607,1.995-33.7,12.39-38.312C23.65.954,48.576,3.295,76.565,3.295,110.17,3.295,112.021,0,112.021,0s29.623,41.572-25.069,40.363c-28.66-.634-44.969.081-44.969.081Z" transform="translate(10.74 0)" fill="#19141e"/>
        <g id="Group_22" data-name="Group 22" transform="translate(73.548 84.49)">
          <path id="Fill_19" data-name="Fill 19" d="M0,0A11.849,11.849,0,0,0,11.535,1.508" transform="translate(9.405 11.416)" fill="#fff"/>
          <path id="Stroke_21" data-name="Stroke 21" d="M0,0A11.849,11.849,0,0,0,11.535,1.508" transform="translate(9.405 11.416)" fill="none" stroke="#252535" stroke-miterlimit="10" stroke-width="4"/>
          <path id="Fill_17" data-name="Fill 17" d="M0,6.723S2.783-.514,15.966.029,30.783,9.538,30.783,9.538Z" transform="translate(0.716 0.31)" fill="#19141e"/>
        </g>
      </g>
    </g>
    <g id="Man_Legs_7" data-name="Man / Legs / 7" transform="translate(-3253.125 -9229.5)" clip-path="url(#clip-path-2)">
      <g id="Group_21" data-name="Group 21" transform="translate(-0.876 0)">
        <g id="Shoes" transform="translate(0 315.399)">
          <path id="Shoes-2" data-name="Shoes" d="M262.912,85.317,288.7,83.95l6.091,19.7S342.359,84.066,366.827,91.5l-82.451,47.929ZM0,42.528,57.083,0l9.265,24.824L39.677,49.365A288.133,288.133,0,0,1,45.309,81.1a263.314,263.314,0,0,1,.931,42.422Z" transform="translate(0.876)"/>
        </g>
        <g id="Legs_skin" data-name="Legs skin" transform="translate(24.533 315.376)">
          <path id="Skin" d="M249.852,112.507h0l-9.413-22.9,25.5-2.3,5.019,16.373-21.1,8.831ZM15.838,49.389h0L0,24.948,32.854,0l2.931,31.1L15.839,49.389Z" transform="translate(0.18 0)" fill="#61180e"/>
        </g>
        <g id="Pants-2" data-name="Pants" transform="translate(28.547)">
          <path id="Pants-3" data-name="Pants" d="M132.541,110.594,98.676,0H231.333a390.756,390.756,0,0,1-19.883,122.35l53.325,252.218a8.825,8.825,0,0,1-2.734,8.376l8.1,28.892-33.119,9.683-7.889-26.924-.206.068a8.811,8.811,0,0,1-11.2-5.785L165.047,216.806Q156.135,230,145.6,243.1c-44.553,55.193-72.321,84.959-86.6,99.278a13.933,13.933,0,0,1-18.408,1.187L20.221,360.4,0,332.471l20.126-16.643a13.871,13.871,0,0,1,1.428-16.557c20.52-22.993,78.27-93.213,110.987-188.676Z" transform="translate(0 0)" fill="#19141e"/>
        </g>
        <g id="Overlay" transform="translate(127.223 0)">
          <path id="Path" d="M130.461,394.595l-.206.068a8.811,8.811,0,0,1-11.2-5.785L66.371,216.806,33.866,110.6,0,0H86.91l25.864,122.35L166.1,374.568a8.825,8.825,0,0,1-2.734,8.376l8.1,28.892-33.119,9.683-7.889-26.924Z" transform="translate(0 0)" fill="#fff" opacity="0.099"/>
        </g>
        <g id="Pants_line" data-name="Pants line" transform="translate(148.663)">
          <path id="Pants_line-2" data-name="Pants line" d="M126.785,387.905l-13.949,4.972L56.865,198,22.334,77.773,0,0H28.31l4.977,19.613L71.638,170.672Z" transform="translate(0 0.001)" fill="#efefef"/>
        </g>
      </g>
    </g>
    <g id="Man_Body_5" data-name="Man / Body / 5" transform="translate(-3186 -9426.5)" clip-path="url(#clip-path-4)">
      <g id="Group_36" data-name="Group 36" transform="translate(0 0)">
        <g id="Skin_color" data-name="Skin color" transform="translate(0 19.889)">
          <path id="Mask" d="M24.93,289.877c-1.362,0-3.95-7.983-4.014-8.18a.126.126,0,0,1,0,.015,9.885,9.885,0,0,1-.532,2.2A3.683,3.683,0,0,1,17.9,286.48H17.9c-.767,0-9.321-24.193-9.407-24.437l.522,5.55,1.152,5.684a5.4,5.4,0,0,1-.352,1.6,3.08,3.08,0,0,1-2.184,2,.28.28,0,0,1-.06.007c-.461,0-1.13-1.091-1.987-3.243-.738-1.854-1.613-4.5-2.53-7.655A55.4,55.4,0,0,1,1.19,242.643c.193-1.692.333-3.187.457-4.506a56.464,56.464,0,0,1,3.811-17.109c.421-1.168,1-2.553,1.715-4.118-1.023-8.883-2.98-26.358-4.59-43.59C.6,152.155-.244,137.944.059,131.083c.2-4.422,1.436-10.454,3.686-17.931,1.8-5.981,4.247-12.894,7.273-20.547,5.151-13.027,10.265-23.832,10.316-23.939L62.788,91.976,39.939,133.852l-1.254,80.109,2.465,4.707a67.3,67.3,0,0,1,4.567,10.559,46.165,46.165,0,0,1,1.706,6.833,52.049,52.049,0,0,0,4.711,14.528c1.6,3.332,2.083,5.66,1.408,6.733a1.536,1.536,0,0,1-1.4.671,8.42,8.42,0,0,1-4.2-1.732,16.435,16.435,0,0,1-4-3.862,20.336,20.336,0,0,1-2.467-5.579c-.846-2.6-1.645-5.05-3.8-6.48-.108.173-.229.354-.357.546-1.356,2.032-3.879,5.812-5.331,21.587-.282,3.059,1.1,13.042,1.111,13.143,0,.223.006.463.011.718.056,3.232.151,8.64-3,9.527a1.078,1.078,0,0,1-.293.039,3.174,3.174,0,0,1-1.649-.739.036.036,0,0,1,0,.009,5.954,5.954,0,0,1-.273,2.052A3.79,3.79,0,0,1,25,289.868.337.337,0,0,1,24.93,289.877Zm189.1-140.592a16.188,16.188,0,0,1-6.215-1.225c-4.717-1.949-10.041-7.336-15.823-16.011a208.978,208.978,0,0,1-14.649-26.891c-8.679-18.578-14.9-36.316-14.963-36.493l40.241-24.089,18.082,48.687,36.922-40.347c-1.265-8.068-2.25-18.457.241-22.13,4.2-6.194,25.568-25.4,25.783-25.592l3.92,32.737.685-2.759a1.258,1.258,0,0,1,.113-.5l.016-.035.008-.017,1.585-6.387c-.7-.357-.921-.857-.65-1.486a5.453,5.453,0,0,1,1.453-1.756l5.412-21.811s.085.037.231.1c.576.26,2.108.949,4.147,1.882a2.761,2.761,0,0,1,.556-.052c4.764,0,18.444,9.313,19.024,9.709.333.217.556.8.661,1.732.4,3.5-.867,11.725-3.141,20.471-2.478,9.529-5.371,16.676-7.738,19.12-4.225,4.363-17.3,8.123-24.719,9.976-5.365,10.6-16.31,31.071-29.334,49.159-7.335,10.186-14.336,18.211-20.81,23.852a52.081,52.081,0,0,1-10.672,7.409A23.4,23.4,0,0,1,214.034,149.285ZM141.26,21.234c-1.08,0-2.225-.035-3.4-.1a51.856,51.856,0,0,1-15.5-3.23A43.637,43.637,0,0,1,111.5,11.875,38.907,38.907,0,0,1,101.408.64c6.12-.425,9.888-.64,13.5-.64,5.849,0,11.417.58,23.617,1.851a100.552,100.552,0,0,1,17.957,3.705l.014,0q.815.227,1.622.45c.655,2.236,1.366,6.5-1.233,9.974S149.019,21.234,141.26,21.234Z" transform="translate(0)" fill="#61180e"/>
        </g>
        <g id="T-Shirt" transform="translate(17 20)">
          <path id="T-Shirt-2" data-name="T-Shirt" d="M44.28,177.526,42.05,96.1,0,64.466s19.83-40,53.76-55.921A91.78,91.78,0,0,1,84.15.036c.768-.077.162-.055.256.309a3.969,3.969,0,0,0,.453.864c.215.35.215.237,1.268,1.8A45.453,45.453,0,0,0,91.1,8.545,33.507,33.507,0,0,0,98.394,14a72.076,72.076,0,0,0,7.87,3.629,27.281,27.281,0,0,0,4.553,1.438c3.943.942,7.013,1.234,13.274,1.562.76.04,5.161-.288,5.935-.443,1.1-.22,2.093-.42,3.341-.762a14.245,14.245,0,0,0,6.4-4.363c.871-1.088,1.7-4.666,1.444-7.3s-1.4-2.641-.354-2.354c18.371,5.03,35.731,15.4,45.88,33.79q1.228,2.223,2.247,4.282l.144-.028,16.354,37.819L182.143,94.954l-4.873,82.572Z" transform="translate(0.258 0.493)" fill="#fbfbfb"/>
        </g>
        <path id="Stroke_16" data-name="Stroke 16" d="M0,22.687l10.667,7.261L36.308,0" transform="translate(59.306 93.898)" fill="none" stroke="#000" stroke-miterlimit="10" stroke-width="5" opacity="0.201"/>
        <path id="Phone" d="M31.947,63.647,30.089,72.79H0L14.193,0H44.282L38.771,28.263l-5.917-2.751L31.012,25l-1.451.082-.629.431v1.769l6.432,9.279-4.92,2.15-7.57,3.984-2.187,1.519L19.839,45l-.692.622-.441.534-.265.478-.114.62.114.274.132.211.191.191,2.481.879,5.66-1.555H32.5l-7.467,1.555-4.92,2.953-1.672,1.581L17.5,54.5v1.063l1.651.745,10.414-1.2-3.448,1.882-2.285,1.421L21.733,59.5l-1.62,2.1v1.035l.574.608,1.454.776h6.686Z" transform="translate(270.887 0)" fill="#5e93d1"/>
        <path id="Fill_23" data-name="Fill 23" d="M4.979,72.79H0L14.193,0h4.978Z" transform="translate(265.904 0)" fill="#020101"/>
        <path id="Fill_34" data-name="Fill 34" d="M4.139,4.262C3.723,6.388,2.49,7.937,1.385,7.72S-.278,5.605.138,3.479,1.787-.2,2.892.02,4.555,2.136,4.139,4.262" transform="translate(286.119 4.189)" fill="#020101"/>
      </g>
    </g>
  </g>
</svg>
